<?xml version="1.0" encoding="UTF-8" standalone="no"?><svg xmlns="http://www.w3.org/2000/svg" xmlns:xlink="http://www.w3.org/1999/xlink" contentScriptType="application/ecmascript" contentStyleType="text/css" height="1966.25px" preserveAspectRatio="none" style="width:1777px;height:1966px;" version="1.1" viewBox="0 0 1777 1966" width="1777.5px" zoomAndPan="magnify"><defs><linearGradient id="gy4xjbmkix1m10" x1="50%" x2="50%" y1="0%" y2="100%"><stop offset="0%" stop-color="#00FFFF"/><stop offset="100%" stop-color="#5F9EA0"/></linearGradient><filter height="300%" id="fy4xjbmkix1m1" width="300%" x="-1" y="-1"><feGaussianBlur result="blurOut" stdDeviation="2.5"/><feColorMatrix in="blurOut" result="blurOut2" type="matrix" values="0 0 0 0 0 0 0 0 0 0 0 0 0 0 0 0 0 0 .4 0"/><feOffset dx="5.0" dy="5.0" in="blurOut2" result="blurOut3"/><feBlend in="SourceGraphic" in2="blurOut3" mode="normal"/></filter></defs><g><rect fill="url(#gy4xjbmkix1m10)" height="40.8008" rx="9.375" ry="9.375" style="stroke: #FF0000; stroke-width: 2.5;" width="162.5" x="814.375" y="2.5"/><text fill="#000000" font-family="sans-serif" font-size="22.5" lengthAdjust="spacingAndGlyphs" textLength="142.5" x="824.375" y="32.1069">Class diagram</text><!--MD5=[2d418345bd5b88f21bca21a625fb3596]
cluster model.string_filters.operations--><polygon fill="#FFFFFF" filter="url(#fy4xjbmkix1m1)" points="167.5,959.5508,446.25,959.5508,455,989.0625,1750,989.0625,1750,1952.0508,167.5,1952.0508,167.5,959.5508" style="stroke: #000000; stroke-width: 1.875;"/><line style="stroke: #000000; stroke-width: 1.875;" x1="167.5" x2="455" y1="989.0625" y2="989.0625"/><text fill="#000000" font-family="sans-serif" font-size="17.5" font-weight="bold" lengthAdjust="spacingAndGlyphs" textLength="271.25" x="172.5" y="980.2173">model.string_filters.operations</text><!--MD5=[3c06cd28fd9cafbb9889b217cc89ed72]
cluster model.strings--><polygon fill="#FFFFFF" filter="url(#fy4xjbmkix1m1)" points="27.5,474.5508,155,474.5508,163.75,504.0625,1080,504.0625,1080,929.5508,27.5,929.5508,27.5,474.5508" style="stroke: #000000; stroke-width: 1.875;"/><line style="stroke: #000000; stroke-width: 1.875;" x1="27.5" x2="163.75" y1="504.0625" y2="504.0625"/><text fill="#000000" font-family="sans-serif" font-size="17.5" font-weight="bold" lengthAdjust="spacingAndGlyphs" textLength="120" x="32.5" y="495.2173">model.strings</text><!--MD5=[eebfad52ac8870fad960f03970d266bb]
cluster model.file_operations--><polygon fill="#FFFFFF" filter="url(#fy4xjbmkix1m1)" points="87.5,77.0508,286.25,77.0508,295,106.5625,976.25,106.5625,976.25,444.5508,87.5,444.5508,87.5,77.0508" style="stroke: #000000; stroke-width: 1.875;"/><line style="stroke: #000000; stroke-width: 1.875;" x1="87.5" x2="295" y1="106.5625" y2="106.5625"/><text fill="#000000" font-family="sans-serif" font-size="17.5" font-weight="bold" lengthAdjust="spacingAndGlyphs" textLength="191.25" x="92.5" y="97.7173">model.file_operations</text><!--MD5=[cca5d97aaf46870920fae66c9bd85cdd]
class Operation--><rect fill="#FEFECE" filter="url(#fy4xjbmkix1m1)" height="111.8848" id="Operation" style="stroke: #A80036; stroke-width: 1.875;" width="218.75" x="187.5" y="1178.3008"/><ellipse cx="257.8125" cy="1198.3008" fill="#A9DCDF" rx="13.75" ry="13.75" style="stroke: #A80036; stroke-width: 1.25;"/><path d="M260,1200.1758 L255.8789,1200.1758 L255.332,1201.4258 L255.332,1201.4258 L255.918,1201.4258 L256.5625,1202.207 L256.5625,1202.6758 L256.5625,1203.1445 L255.918,1203.9258 L255.332,1203.9258 L252.9688,1203.9258 L252.207,1203.9258 L251.5625,1203.1445 L251.5625,1202.6758 L251.5625,1202.207 L252.207,1201.4258 L252.9688,1201.4258 L255.8594,1193.9258 L254.7656,1193.9258 L253.457,1193.9258 L252.8125,1193.1445 L252.8125,1192.6758 L252.8125,1192.207 L253.457,1191.4258 L254.7656,1191.4258 L259.3555,1191.4258 L262.7148,1201.4258 L263.418,1201.4258 L263.418,1201.4258 L264.0625,1202.207 L264.0625,1202.6758 L264.0625,1203.1445 L263.418,1203.9258 L262.7148,1203.9258 L260.3516,1203.9258 L259.707,1203.9258 L259.0625,1203.1445 L259.0625,1202.6758 L259.0625,1202.207 L259.707,1201.4258 L260.3516,1201.4258 L260.3516,1201.4258 L260,1200.1758 Z M259.3164,1197.6758 L257.8125,1193.2031 L256.5234,1197.6758 L259.3164,1197.6758 Z "/><text fill="#000000" font-family="sans-serif" font-size="15" font-style="italic" lengthAdjust="spacingAndGlyphs" textLength="67.5" x="283.4375" y="1204.4385">Operation</text><line style="stroke: #A80036; stroke-width: 1.875;" x1="188.75" x2="405" y1="1218.3008" y2="1218.3008"/><polygon fill="none" points="201.25,1225.8008,206.25,1230.8008,201.25,1235.8008,196.25,1230.8008" style="stroke: #B38D22; stroke-width: 1.25;"/><text fill="#000000" font-family="sans-serif" font-size="13.75" lengthAdjust="spacingAndGlyphs" textLength="186.25" x="212.5" y="1237.5745">StringAdditionalOperations ops</text><line style="stroke: #A80036; stroke-width: 1.875;" x1="188.75" x2="405" y1="1245.5957" y2="1245.5957"/><ellipse cx="201.25" cy="1259.3457" fill="#84BE84" rx="3.75" ry="3.75" style="stroke: #038048; stroke-width: 1.25;"/><text fill="#000000" font-family="sans-serif" font-size="13.75" font-style="italic" lengthAdjust="spacingAndGlyphs" textLength="151.25" x="212.5" y="1264.8694">filter(String input): String</text><ellipse cx="201.25" cy="1276.6406" fill="#84BE84" rx="3.75" ry="3.75" style="stroke: #038048; stroke-width: 1.25;"/><text fill="#000000" font-family="sans-serif" font-size="13.75" font-style="italic" lengthAdjust="spacingAndGlyphs" textLength="165" x="212.5" y="1282.1643">addFilter(String filter): void</text><!--MD5=[a54b7295b32aa793bb4a3dbb9f39d575]
class CharacterOperation--><rect fill="#FEFECE" filter="url(#fy4xjbmkix1m1)" height="163.7695" id="CharacterOperation" style="stroke: #A80036; stroke-width: 1.875;" width="348.75" x="700.625" y="1551.4258"/><ellipse cx="802.1875" cy="1571.4258" fill="#A9DCDF" rx="13.75" ry="13.75" style="stroke: #A80036; stroke-width: 1.25;"/><path d="M804.375,1573.3008 L800.2539,1573.3008 L799.707,1574.5508 L799.707,1574.5508 L800.293,1574.5508 L800.9375,1575.332 L800.9375,1575.8008 L800.9375,1576.2695 L800.293,1577.0508 L799.707,1577.0508 L797.3438,1577.0508 L796.582,1577.0508 L795.9375,1576.2695 L795.9375,1575.8008 L795.9375,1575.332 L796.582,1574.5508 L797.3438,1574.5508 L800.2344,1567.0508 L799.1406,1567.0508 L797.832,1567.0508 L797.1875,1566.2695 L797.1875,1565.8008 L797.1875,1565.332 L797.832,1564.5508 L799.1406,1564.5508 L803.7305,1564.5508 L807.0898,1574.5508 L807.793,1574.5508 L807.793,1574.5508 L808.4375,1575.332 L808.4375,1575.8008 L808.4375,1576.2695 L807.793,1577.0508 L807.0898,1577.0508 L804.7266,1577.0508 L804.082,1577.0508 L803.4375,1576.2695 L803.4375,1575.8008 L803.4375,1575.332 L804.082,1574.5508 L804.7266,1574.5508 L804.7266,1574.5508 L804.375,1573.3008 Z M803.6914,1570.8008 L802.1875,1566.3281 L800.8984,1570.8008 L803.6914,1570.8008 Z "/><text fill="#000000" font-family="sans-serif" font-size="15" font-style="italic" lengthAdjust="spacingAndGlyphs" textLength="135" x="827.8125" y="1577.5635">CharacterOperation</text><line style="stroke: #A80036; stroke-width: 1.875;" x1="701.875" x2="1048.125" y1="1591.4258" y2="1591.4258"/><polygon fill="none" points="714.375,1598.9258,719.375,1603.9258,714.375,1608.9258,709.375,1603.9258" style="stroke: #B38D22; stroke-width: 1.25;"/><text fill="#000000" font-family="sans-serif" font-size="13.75" lengthAdjust="spacingAndGlyphs" textLength="193.75" x="725.625" y="1610.6995">List&lt;Character&gt; filterCharacters</text><line style="stroke: #A80036; stroke-width: 1.875;" x1="701.875" x2="1048.125" y1="1618.7207" y2="1618.7207"/><ellipse cx="714.375" cy="1632.4707" fill="#84BE84" rx="3.75" ry="3.75" style="stroke: #038048; stroke-width: 1.25;"/><text fill="#000000" font-family="sans-serif" font-size="13.75" lengthAdjust="spacingAndGlyphs" textLength="146.25" x="725.625" y="1637.9944">filter(String input): String</text><ellipse cx="714.375" cy="1649.7656" fill="#84BE84" rx="3.75" ry="3.75" style="stroke: #038048; stroke-width: 1.25;"/><text fill="#000000" font-family="sans-serif" font-size="13.75" lengthAdjust="spacingAndGlyphs" textLength="191.25" x="725.625" y="1655.2893">replaceWith(String replaceWith)</text><ellipse cx="714.375" cy="1667.0605" fill="#84BE84" rx="3.75" ry="3.75" style="stroke: #038048; stroke-width: 1.25;"/><text fill="#000000" font-family="sans-serif" font-size="13.75" lengthAdjust="spacingAndGlyphs" textLength="178.75" x="725.625" y="1672.5842">addFilter(char filterCharacter)</text><ellipse cx="714.375" cy="1684.3555" fill="#84BE84" rx="3.75" ry="3.75" style="stroke: #038048; stroke-width: 1.25;"/><text fill="#000000" font-family="sans-serif" font-size="13.75" lengthAdjust="spacingAndGlyphs" textLength="193.75" x="725.625" y="1689.8792">addFilter(String filterCharacters)</text><polygon fill="#FFFF44" points="714.375,1695.4004,719.375,1700.4004,714.375,1705.4004,709.375,1700.4004" style="stroke: #B38D22; stroke-width: 1.25;"/><text fill="#000000" font-family="sans-serif" font-size="13.75" font-style="italic" lengthAdjust="spacingAndGlyphs" textLength="316.25" x="725.625" y="1707.1741">performOperation(String input, char filterCharacter)</text><!--MD5=[d040e54fedde67e738c58b446cbe0b01]
class RegexOperation--><rect fill="#FEFECE" filter="url(#fy4xjbmkix1m1)" height="163.7695" id="RegexOperation" style="stroke: #A80036; stroke-width: 1.875;" width="340" x="705" y="1152.6758"/><ellipse cx="813.4375" cy="1172.6758" fill="#A9DCDF" rx="13.75" ry="13.75" style="stroke: #A80036; stroke-width: 1.25;"/><path d="M815.625,1174.5508 L811.5039,1174.5508 L810.957,1175.8008 L810.957,1175.8008 L811.543,1175.8008 L812.1875,1176.582 L812.1875,1177.0508 L812.1875,1177.5195 L811.543,1178.3008 L810.957,1178.3008 L808.5938,1178.3008 L807.832,1178.3008 L807.1875,1177.5195 L807.1875,1177.0508 L807.1875,1176.582 L807.832,1175.8008 L808.5938,1175.8008 L811.4844,1168.3008 L810.3906,1168.3008 L809.082,1168.3008 L808.4375,1167.5195 L808.4375,1167.0508 L808.4375,1166.582 L809.082,1165.8008 L810.3906,1165.8008 L814.9805,1165.8008 L818.3398,1175.8008 L819.043,1175.8008 L819.043,1175.8008 L819.6875,1176.582 L819.6875,1177.0508 L819.6875,1177.5195 L819.043,1178.3008 L818.3398,1178.3008 L815.9766,1178.3008 L815.332,1178.3008 L814.6875,1177.5195 L814.6875,1177.0508 L814.6875,1176.582 L815.332,1175.8008 L815.9766,1175.8008 L815.9766,1175.8008 L815.625,1174.5508 Z M814.9414,1172.0508 L813.4375,1167.5781 L812.1484,1172.0508 L814.9414,1172.0508 Z "/><text fill="#000000" font-family="sans-serif" font-size="15" font-style="italic" lengthAdjust="spacingAndGlyphs" textLength="112.5" x="839.0625" y="1178.8135">RegexOperation</text><line style="stroke: #A80036; stroke-width: 1.875;" x1="706.25" x2="1043.75" y1="1192.6758" y2="1192.6758"/><polygon fill="none" points="718.75,1200.1758,723.75,1205.1758,718.75,1210.1758,713.75,1205.1758" style="stroke: #B38D22; stroke-width: 1.25;"/><text fill="#000000" font-family="sans-serif" font-size="13.75" lengthAdjust="spacingAndGlyphs" textLength="115" x="730" y="1211.9495">Pattern filterPattern</text><line style="stroke: #A80036; stroke-width: 1.875;" x1="706.25" x2="1043.75" y1="1219.9707" y2="1219.9707"/><ellipse cx="718.75" cy="1233.7207" fill="#84BE84" rx="3.75" ry="3.75" style="stroke: #038048; stroke-width: 1.25;"/><text fill="#000000" font-family="sans-serif" font-size="13.75" lengthAdjust="spacingAndGlyphs" textLength="146.25" x="730" y="1239.2444">filter(String input): String</text><ellipse cx="718.75" cy="1251.0156" fill="#84BE84" rx="3.75" ry="3.75" style="stroke: #038048; stroke-width: 1.25;"/><text fill="#000000" font-family="sans-serif" font-size="13.75" lengthAdjust="spacingAndGlyphs" textLength="191.25" x="730" y="1256.5393">replaceWith(String replaceWith)</text><ellipse cx="718.75" cy="1268.3105" fill="#84BE84" rx="3.75" ry="3.75" style="stroke: #038048; stroke-width: 1.25;"/><text fill="#000000" font-family="sans-serif" font-size="13.75" lengthAdjust="spacingAndGlyphs" textLength="206.25" x="730" y="1273.8342">addFilter(Pattern newFilterPattern)</text><ellipse cx="718.75" cy="1285.6055" fill="#84BE84" rx="3.75" ry="3.75" style="stroke: #038048; stroke-width: 1.25;"/><text fill="#000000" font-family="sans-serif" font-size="13.75" lengthAdjust="spacingAndGlyphs" textLength="198.75" x="730" y="1291.1292">addFilter(String newFilterPattern)</text><polygon fill="#FFFF44" points="718.75,1296.6504,723.75,1301.6504,718.75,1306.6504,713.75,1301.6504" style="stroke: #B38D22; stroke-width: 1.25;"/><text fill="#000000" font-family="sans-serif" font-size="13.75" font-style="italic" lengthAdjust="spacingAndGlyphs" textLength="307.5" x="730" y="1308.4241">performOperation(String input, Patter filterPattern)</text><!--MD5=[932372075a5d8e7e81dcbde35efeeda4]
class ModifiedRegexOperation--><rect fill="#FEFECE" filter="url(#fy4xjbmkix1m1)" height="111.8848" id="ModifiedRegexOperation" style="stroke: #A80036; stroke-width: 1.875;" width="301.25" x="1157.5" y="1247.0508"/><ellipse cx="1217.8125" cy="1267.0508" fill="#A9DCDF" rx="13.75" ry="13.75" style="stroke: #A80036; stroke-width: 1.25;"/><path d="M1220,1268.9258 L1215.8789,1268.9258 L1215.332,1270.1758 L1215.332,1270.1758 L1215.918,1270.1758 L1216.5625,1270.957 L1216.5625,1271.4258 L1216.5625,1271.8945 L1215.918,1272.6758 L1215.332,1272.6758 L1212.9688,1272.6758 L1212.207,1272.6758 L1211.5625,1271.8945 L1211.5625,1271.4258 L1211.5625,1270.957 L1212.207,1270.1758 L1212.9688,1270.1758 L1215.8594,1262.6758 L1214.7656,1262.6758 L1213.457,1262.6758 L1212.8125,1261.8945 L1212.8125,1261.4258 L1212.8125,1260.957 L1213.457,1260.1758 L1214.7656,1260.1758 L1219.3555,1260.1758 L1222.7148,1270.1758 L1223.418,1270.1758 L1223.418,1270.1758 L1224.0625,1270.957 L1224.0625,1271.4258 L1224.0625,1271.8945 L1223.418,1272.6758 L1222.7148,1272.6758 L1220.3516,1272.6758 L1219.707,1272.6758 L1219.0625,1271.8945 L1219.0625,1271.4258 L1219.0625,1270.957 L1219.707,1270.1758 L1220.3516,1270.1758 L1220.3516,1270.1758 L1220,1268.9258 Z M1219.3164,1266.4258 L1217.8125,1261.9531 L1216.5234,1266.4258 L1219.3164,1266.4258 Z "/><text fill="#000000" font-family="sans-serif" font-size="15" font-style="italic" lengthAdjust="spacingAndGlyphs" textLength="170" x="1243.4375" y="1273.1885">ModifiedRegexOperation</text><line style="stroke: #A80036; stroke-width: 1.875;" x1="1158.75" x2="1457.5" y1="1287.0508" y2="1287.0508"/><polygon fill="none" points="1171.25,1294.5508,1176.25,1299.5508,1171.25,1304.5508,1166.25,1299.5508" style="stroke: #B38D22; stroke-width: 1.25;"/><text fill="#000000" font-family="sans-serif" font-size="13.75" lengthAdjust="spacingAndGlyphs" textLength="167.5" x="1182.5" y="1306.3245">Pattern modifiedFilterPattern</text><line style="stroke: #A80036; stroke-width: 1.875;" x1="1158.75" x2="1457.5" y1="1314.3457" y2="1314.3457"/><ellipse cx="1171.25" cy="1328.0957" fill="#84BE84" rx="3.75" ry="3.75" style="stroke: #038048; stroke-width: 1.25;"/><text fill="#000000" font-family="sans-serif" font-size="13.75" lengthAdjust="spacingAndGlyphs" textLength="258.75" x="1182.5" y="1333.6194">addFilter(Pattern newPatternToBeModified)</text><polygon fill="#FFFF44" points="1171.25,1339.1406,1176.25,1344.1406,1171.25,1349.1406,1166.25,1344.1406" style="stroke: #B38D22; stroke-width: 1.25;"/><text fill="#000000" font-family="sans-serif" font-size="13.75" font-style="italic" lengthAdjust="spacingAndGlyphs" textLength="268.75" x="1182.5" y="1350.9143">modifyPattern(Pattern patternToBeModified)</text><!--MD5=[d95cd2e32cce96164313feda49b5124d]
class BlacklistCharacterFilter--><rect fill="#FEFECE" filter="url(#fy4xjbmkix1m1)" height="77.2949" id="BlacklistCharacterFilter" style="stroke: #A80036; stroke-width: 1.875;" width="198.75" x="1208.75" y="1854.5508"/><ellipse cx="1227.5" cy="1874.5508" fill="#ADD1B2" rx="13.75" ry="13.75" style="stroke: #A80036; stroke-width: 1.25;"/><path d="M1230,1870.1758 Q1230.2539,1869.5508 1230.5469,1869.2383 Q1230.8398,1868.9258 1231.1719,1868.9258 Q1231.7578,1868.9258 1232.1289,1869.2773 Q1232.5,1869.6289 1232.5,1870.4492 L1232.5,1872.4023 Q1232.5,1873.2227 1232.1484,1873.5742 Q1231.7969,1873.9258 1231.25,1873.9258 Q1230.7617,1873.9258 1230.4492,1873.7109 Q1230.1367,1873.4961 1230,1872.9297 Q1229.9414,1872.5391 1229.7266,1872.3242 Q1229.3359,1871.9141 1228.6328,1871.6797 Q1227.9297,1871.4258 1227.2266,1871.4258 Q1226.3477,1871.4258 1225.6055,1871.7773 Q1224.8828,1872.1289 1224.3164,1872.9102 Q1223.75,1873.6914 1223.75,1874.7656 L1223.75,1875.918 Q1223.75,1877.207 1224.8047,1878.0664 Q1225.8594,1878.9258 1227.7344,1878.9258 Q1228.8477,1878.9258 1229.6289,1878.6719 Q1230.0781,1878.5352 1230.5859,1878.0859 Q1230.918,1877.832 1231.0938,1877.7539 Q1231.2695,1877.6758 1231.4844,1877.6758 Q1231.8945,1877.6758 1232.1875,1878.0078 Q1232.5,1878.3203 1232.5,1878.7695 Q1232.5,1879.1992 1232.0703,1879.707 Q1231.4453,1880.4492 1230.4492,1880.8594 Q1229.1406,1881.4258 1227.5391,1881.4258 Q1225.6641,1881.4258 1224.1602,1880.6836 Q1222.9492,1880.0977 1222.0898,1878.8281 Q1221.25,1877.5586 1221.25,1876.0547 L1221.25,1874.6875 Q1221.25,1873.125 1221.9922,1871.7578 Q1222.7539,1870.3906 1224.0625,1869.668 Q1225.3906,1868.9258 1226.875,1868.9258 Q1227.7734,1868.9258 1228.5547,1869.2383 Q1229.3359,1869.5508 1230,1870.1758 Z "/><text fill="#000000" font-family="sans-serif" font-size="15" lengthAdjust="spacingAndGlyphs" textLength="158.75" x="1245" y="1880.6885">BlacklistCharacterFilter</text><line style="stroke: #A80036; stroke-width: 1.875;" x1="1210" x2="1406.25" y1="1894.5508" y2="1894.5508"/><line style="stroke: #A80036; stroke-width: 1.875;" x1="1210" x2="1406.25" y1="1904.5508" y2="1904.5508"/><polygon fill="#FFFF44" points="1222.5,1912.0508,1227.5,1917.0508,1222.5,1922.0508,1217.5,1917.0508" style="stroke: #B38D22; stroke-width: 1.25;"/><text fill="#000000" font-family="sans-serif" font-size="13.75" lengthAdjust="spacingAndGlyphs" textLength="116.25" x="1233.75" y="1923.8245">performOperation()</text><!--MD5=[6705d3585327173f73cd84964fdbe42b]
class BlacklistRegexFilter--><rect fill="#FEFECE" filter="url(#fy4xjbmkix1m1)" height="77.2949" id="BlacklistRegexFilter" style="stroke: #A80036; stroke-width: 1.875;" width="175" x="1220.625" y="1125.8008"/><ellipse cx="1239.375" cy="1145.8008" fill="#ADD1B2" rx="13.75" ry="13.75" style="stroke: #A80036; stroke-width: 1.25;"/><path d="M1241.875,1141.4258 Q1242.1289,1140.8008 1242.4219,1140.4883 Q1242.7148,1140.1758 1243.0469,1140.1758 Q1243.6328,1140.1758 1244.0039,1140.5273 Q1244.375,1140.8789 1244.375,1141.6992 L1244.375,1143.6523 Q1244.375,1144.4727 1244.0234,1144.8242 Q1243.6719,1145.1758 1243.125,1145.1758 Q1242.6367,1145.1758 1242.3242,1144.9609 Q1242.0117,1144.7461 1241.875,1144.1797 Q1241.8164,1143.7891 1241.6016,1143.5742 Q1241.2109,1143.1641 1240.5078,1142.9297 Q1239.8047,1142.6758 1239.1016,1142.6758 Q1238.2227,1142.6758 1237.4805,1143.0273 Q1236.7578,1143.3789 1236.1914,1144.1602 Q1235.625,1144.9414 1235.625,1146.0156 L1235.625,1147.168 Q1235.625,1148.457 1236.6797,1149.3164 Q1237.7344,1150.1758 1239.6094,1150.1758 Q1240.7227,1150.1758 1241.5039,1149.9219 Q1241.9531,1149.7852 1242.4609,1149.3359 Q1242.793,1149.082 1242.9688,1149.0039 Q1243.1445,1148.9258 1243.3594,1148.9258 Q1243.7695,1148.9258 1244.0625,1149.2578 Q1244.375,1149.5703 1244.375,1150.0195 Q1244.375,1150.4492 1243.9453,1150.957 Q1243.3203,1151.6992 1242.3242,1152.1094 Q1241.0156,1152.6758 1239.4141,1152.6758 Q1237.5391,1152.6758 1236.0352,1151.9336 Q1234.8242,1151.3477 1233.9648,1150.0781 Q1233.125,1148.8086 1233.125,1147.3047 L1233.125,1145.9375 Q1233.125,1144.375 1233.8672,1143.0078 Q1234.6289,1141.6406 1235.9375,1140.918 Q1237.2656,1140.1758 1238.75,1140.1758 Q1239.6484,1140.1758 1240.4297,1140.4883 Q1241.2109,1140.8008 1241.875,1141.4258 Z "/><text fill="#000000" font-family="sans-serif" font-size="15" lengthAdjust="spacingAndGlyphs" textLength="135" x="1256.875" y="1151.9385">BlacklistRegexFilter</text><line style="stroke: #A80036; stroke-width: 1.875;" x1="1221.875" x2="1394.375" y1="1165.8008" y2="1165.8008"/><line style="stroke: #A80036; stroke-width: 1.875;" x1="1221.875" x2="1394.375" y1="1175.8008" y2="1175.8008"/><polygon fill="#FFFF44" points="1234.375,1183.3008,1239.375,1188.3008,1234.375,1193.3008,1229.375,1188.3008" style="stroke: #B38D22; stroke-width: 1.25;"/><text fill="#000000" font-family="sans-serif" font-size="13.75" lengthAdjust="spacingAndGlyphs" textLength="116.25" x="1245.625" y="1195.0745">performOperation()</text><!--MD5=[031fe6142c81dbb773b29b377bd75907]
class WhitelistCharacterFilter--><rect fill="#FEFECE" filter="url(#fy4xjbmkix1m1)" height="94.5898" id="WhitelistCharacterFilter" style="stroke: #A80036; stroke-width: 1.875;" width="338.75" x="1138.75" y="1715.8008"/><ellipse cx="1222.8125" cy="1735.8008" fill="#ADD1B2" rx="13.75" ry="13.75" style="stroke: #A80036; stroke-width: 1.25;"/><path d="M1225.3125,1731.4258 Q1225.5664,1730.8008 1225.8594,1730.4883 Q1226.1523,1730.1758 1226.4844,1730.1758 Q1227.0703,1730.1758 1227.4414,1730.5273 Q1227.8125,1730.8789 1227.8125,1731.6992 L1227.8125,1733.6523 Q1227.8125,1734.4727 1227.4609,1734.8242 Q1227.1094,1735.1758 1226.5625,1735.1758 Q1226.0742,1735.1758 1225.7617,1734.9609 Q1225.4492,1734.7461 1225.3125,1734.1797 Q1225.2539,1733.7891 1225.0391,1733.5742 Q1224.6484,1733.1641 1223.9453,1732.9297 Q1223.2422,1732.6758 1222.5391,1732.6758 Q1221.6602,1732.6758 1220.918,1733.0273 Q1220.1953,1733.3789 1219.6289,1734.1602 Q1219.0625,1734.9414 1219.0625,1736.0156 L1219.0625,1737.168 Q1219.0625,1738.457 1220.1172,1739.3164 Q1221.1719,1740.1758 1223.0469,1740.1758 Q1224.1602,1740.1758 1224.9414,1739.9219 Q1225.3906,1739.7852 1225.8984,1739.3359 Q1226.2305,1739.082 1226.4063,1739.0039 Q1226.582,1738.9258 1226.7969,1738.9258 Q1227.207,1738.9258 1227.5,1739.2578 Q1227.8125,1739.5703 1227.8125,1740.0195 Q1227.8125,1740.4492 1227.3828,1740.957 Q1226.7578,1741.6992 1225.7617,1742.1094 Q1224.4531,1742.6758 1222.8516,1742.6758 Q1220.9766,1742.6758 1219.4727,1741.9336 Q1218.2617,1741.3477 1217.4023,1740.0781 Q1216.5625,1738.8086 1216.5625,1737.3047 L1216.5625,1735.9375 Q1216.5625,1734.375 1217.3047,1733.0078 Q1218.0664,1731.6406 1219.375,1730.918 Q1220.7031,1730.1758 1222.1875,1730.1758 Q1223.0859,1730.1758 1223.8672,1730.4883 Q1224.6484,1730.8008 1225.3125,1731.4258 Z "/><text fill="#000000" font-family="sans-serif" font-size="15" lengthAdjust="spacingAndGlyphs" textLength="160" x="1248.4375" y="1741.9385">WhitelistCharacterFilter</text><line style="stroke: #A80036; stroke-width: 1.875;" x1="1140" x2="1476.25" y1="1755.8008" y2="1755.8008"/><line style="stroke: #A80036; stroke-width: 1.875;" x1="1140" x2="1476.25" y1="1765.8008" y2="1765.8008"/><ellipse cx="1152.5" cy="1779.5508" fill="#84BE84" rx="3.75" ry="3.75" style="stroke: #038048; stroke-width: 1.25;"/><text fill="#000000" font-family="sans-serif" font-size="13.75" lengthAdjust="spacingAndGlyphs" textLength="146.25" x="1163.75" y="1785.0745">filter(String input): String</text><polygon fill="#FFFF44" points="1152.5,1790.5957,1157.5,1795.5957,1152.5,1800.5957,1147.5,1795.5957" style="stroke: #B38D22; stroke-width: 1.25;"/><text fill="#000000" font-family="sans-serif" font-size="13.75" lengthAdjust="spacingAndGlyphs" textLength="306.25" x="1163.75" y="1802.3694">performOperation() is UNSUPPORTED_OPERATION</text><!--MD5=[f64c10bd41d10117b29424af67718fa4]
class WhitelistRegexFilter--><rect fill="#FEFECE" filter="url(#fy4xjbmkix1m1)" height="94.5898" id="WhitelistRegexFilter" style="stroke: #A80036; stroke-width: 1.875;" width="176.25" x="1553.75" y="1293.3008"/><ellipse cx="1572.5" cy="1313.3008" fill="#ADD1B2" rx="13.75" ry="13.75" style="stroke: #A80036; stroke-width: 1.25;"/><path d="M1575,1308.9258 Q1575.2539,1308.3008 1575.5469,1307.9883 Q1575.8398,1307.6758 1576.1719,1307.6758 Q1576.7578,1307.6758 1577.1289,1308.0273 Q1577.5,1308.3789 1577.5,1309.1992 L1577.5,1311.1523 Q1577.5,1311.9727 1577.1484,1312.3242 Q1576.7969,1312.6758 1576.25,1312.6758 Q1575.7617,1312.6758 1575.4492,1312.4609 Q1575.1367,1312.2461 1575,1311.6797 Q1574.9414,1311.2891 1574.7266,1311.0742 Q1574.3359,1310.6641 1573.6328,1310.4297 Q1572.9297,1310.1758 1572.2266,1310.1758 Q1571.3477,1310.1758 1570.6055,1310.5273 Q1569.8828,1310.8789 1569.3164,1311.6602 Q1568.75,1312.4414 1568.75,1313.5156 L1568.75,1314.668 Q1568.75,1315.957 1569.8047,1316.8164 Q1570.8594,1317.6758 1572.7344,1317.6758 Q1573.8477,1317.6758 1574.6289,1317.4219 Q1575.0781,1317.2852 1575.5859,1316.8359 Q1575.918,1316.582 1576.0938,1316.5039 Q1576.2695,1316.4258 1576.4844,1316.4258 Q1576.8945,1316.4258 1577.1875,1316.7578 Q1577.5,1317.0703 1577.5,1317.5195 Q1577.5,1317.9492 1577.0703,1318.457 Q1576.4453,1319.1992 1575.4492,1319.6094 Q1574.1406,1320.1758 1572.5391,1320.1758 Q1570.6641,1320.1758 1569.1602,1319.4336 Q1567.9492,1318.8477 1567.0898,1317.5781 Q1566.25,1316.3086 1566.25,1314.8047 L1566.25,1313.4375 Q1566.25,1311.875 1566.9922,1310.5078 Q1567.7539,1309.1406 1569.0625,1308.418 Q1570.3906,1307.6758 1571.875,1307.6758 Q1572.7734,1307.6758 1573.5547,1307.9883 Q1574.3359,1308.3008 1575,1308.9258 Z "/><text fill="#000000" font-family="sans-serif" font-size="15" lengthAdjust="spacingAndGlyphs" textLength="136.25" x="1590" y="1319.4385">WhitelistRegexFilter</text><line style="stroke: #A80036; stroke-width: 1.875;" x1="1555" x2="1728.75" y1="1333.3008" y2="1333.3008"/><line style="stroke: #A80036; stroke-width: 1.875;" x1="1555" x2="1728.75" y1="1343.3008" y2="1343.3008"/><polygon fill="#FFFF44" points="1567.5,1350.8008,1572.5,1355.8008,1567.5,1360.8008,1562.5,1355.8008" style="stroke: #B38D22; stroke-width: 1.25;"/><text fill="#000000" font-family="sans-serif" font-size="13.75" lengthAdjust="spacingAndGlyphs" textLength="92.5" x="1578.75" y="1362.5745">modifyPattern()</text><polygon fill="#FFFF44" points="1567.5,1368.0957,1572.5,1373.0957,1567.5,1378.0957,1562.5,1373.0957" style="stroke: #B38D22; stroke-width: 1.25;"/><text fill="#000000" font-family="sans-serif" font-size="13.75" lengthAdjust="spacingAndGlyphs" textLength="116.25" x="1578.75" y="1379.8694">performOperation()</text><!--MD5=[e3adbb8dfca119075a09a7c3d2e48522]
class SqueezeCharacterFilter--><rect fill="#FEFECE" filter="url(#fy4xjbmkix1m1)" height="77.2949" id="SqueezeCharacterFilter" style="stroke: #A80036; stroke-width: 1.875;" width="201.25" x="1207.5" y="1594.5508"/><ellipse cx="1226.25" cy="1614.5508" fill="#ADD1B2" rx="13.75" ry="13.75" style="stroke: #A80036; stroke-width: 1.25;"/><path d="M1228.75,1610.1758 Q1229.0039,1609.5508 1229.2969,1609.2383 Q1229.5898,1608.9258 1229.9219,1608.9258 Q1230.5078,1608.9258 1230.8789,1609.2773 Q1231.25,1609.6289 1231.25,1610.4492 L1231.25,1612.4023 Q1231.25,1613.2227 1230.8984,1613.5742 Q1230.5469,1613.9258 1230,1613.9258 Q1229.5117,1613.9258 1229.1992,1613.7109 Q1228.8867,1613.4961 1228.75,1612.9297 Q1228.6914,1612.5391 1228.4766,1612.3242 Q1228.0859,1611.9141 1227.3828,1611.6797 Q1226.6797,1611.4258 1225.9766,1611.4258 Q1225.0977,1611.4258 1224.3555,1611.7773 Q1223.6328,1612.1289 1223.0664,1612.9102 Q1222.5,1613.6914 1222.5,1614.7656 L1222.5,1615.918 Q1222.5,1617.207 1223.5547,1618.0664 Q1224.6094,1618.9258 1226.4844,1618.9258 Q1227.5977,1618.9258 1228.3789,1618.6719 Q1228.8281,1618.5352 1229.3359,1618.0859 Q1229.668,1617.832 1229.8438,1617.7539 Q1230.0195,1617.6758 1230.2344,1617.6758 Q1230.6445,1617.6758 1230.9375,1618.0078 Q1231.25,1618.3203 1231.25,1618.7695 Q1231.25,1619.1992 1230.8203,1619.707 Q1230.1953,1620.4492 1229.1992,1620.8594 Q1227.8906,1621.4258 1226.2891,1621.4258 Q1224.4141,1621.4258 1222.9102,1620.6836 Q1221.6992,1620.0977 1220.8398,1618.8281 Q1220,1617.5586 1220,1616.0547 L1220,1614.6875 Q1220,1613.125 1220.7422,1611.7578 Q1221.5039,1610.3906 1222.8125,1609.668 Q1224.1406,1608.9258 1225.625,1608.9258 Q1226.5234,1608.9258 1227.3047,1609.2383 Q1228.0859,1609.5508 1228.75,1610.1758 Z "/><text fill="#000000" font-family="sans-serif" font-size="15" lengthAdjust="spacingAndGlyphs" textLength="161.25" x="1243.75" y="1620.6885">SqueezeCharacterFilter</text><line style="stroke: #A80036; stroke-width: 1.875;" x1="1208.75" x2="1407.5" y1="1634.5508" y2="1634.5508"/><line style="stroke: #A80036; stroke-width: 1.875;" x1="1208.75" x2="1407.5" y1="1644.5508" y2="1644.5508"/><polygon fill="#FFFF44" points="1221.25,1652.0508,1226.25,1657.0508,1221.25,1662.0508,1216.25,1657.0508" style="stroke: #B38D22; stroke-width: 1.25;"/><text fill="#000000" font-family="sans-serif" font-size="13.75" lengthAdjust="spacingAndGlyphs" textLength="116.25" x="1232.5" y="1663.8245">performOperation()</text><!--MD5=[16b3a733b2c49c39769089e2d6881461]
class SqueezeRegexFilter--><rect fill="#FEFECE" filter="url(#fy4xjbmkix1m1)" height="77.2949" id="SqueezeRegexFilter" style="stroke: #A80036; stroke-width: 1.875;" width="177.5" x="1219.375" y="1004.5508"/><ellipse cx="1238.125" cy="1024.5508" fill="#ADD1B2" rx="13.75" ry="13.75" style="stroke: #A80036; stroke-width: 1.25;"/><path d="M1240.625,1020.1758 Q1240.8789,1019.5508 1241.1719,1019.2383 Q1241.4648,1018.9258 1241.7969,1018.9258 Q1242.3828,1018.9258 1242.7539,1019.2773 Q1243.125,1019.6289 1243.125,1020.4492 L1243.125,1022.4023 Q1243.125,1023.2227 1242.7734,1023.5742 Q1242.4219,1023.9258 1241.875,1023.9258 Q1241.3867,1023.9258 1241.0742,1023.7109 Q1240.7617,1023.4961 1240.625,1022.9297 Q1240.5664,1022.5391 1240.3516,1022.3242 Q1239.9609,1021.9141 1239.2578,1021.6797 Q1238.5547,1021.4258 1237.8516,1021.4258 Q1236.9727,1021.4258 1236.2305,1021.7773 Q1235.5078,1022.1289 1234.9414,1022.9102 Q1234.375,1023.6914 1234.375,1024.7656 L1234.375,1025.918 Q1234.375,1027.207 1235.4297,1028.0664 Q1236.4844,1028.9258 1238.3594,1028.9258 Q1239.4727,1028.9258 1240.2539,1028.6719 Q1240.7031,1028.5352 1241.2109,1028.0859 Q1241.543,1027.832 1241.7188,1027.7539 Q1241.8945,1027.6758 1242.1094,1027.6758 Q1242.5195,1027.6758 1242.8125,1028.0078 Q1243.125,1028.3203 1243.125,1028.7695 Q1243.125,1029.1992 1242.6953,1029.707 Q1242.0703,1030.4492 1241.0742,1030.8594 Q1239.7656,1031.4258 1238.1641,1031.4258 Q1236.2891,1031.4258 1234.7852,1030.6836 Q1233.5742,1030.0977 1232.7148,1028.8281 Q1231.875,1027.5586 1231.875,1026.0547 L1231.875,1024.6875 Q1231.875,1023.125 1232.6172,1021.7578 Q1233.3789,1020.3906 1234.6875,1019.668 Q1236.0156,1018.9258 1237.5,1018.9258 Q1238.3984,1018.9258 1239.1797,1019.2383 Q1239.9609,1019.5508 1240.625,1020.1758 Z "/><text fill="#000000" font-family="sans-serif" font-size="15" lengthAdjust="spacingAndGlyphs" textLength="137.5" x="1255.625" y="1030.6885">SqueezeRegexFilter</text><line style="stroke: #A80036; stroke-width: 1.875;" x1="1220.625" x2="1395.625" y1="1044.5508" y2="1044.5508"/><line style="stroke: #A80036; stroke-width: 1.875;" x1="1220.625" x2="1395.625" y1="1054.5508" y2="1054.5508"/><polygon fill="#FFFF44" points="1233.125,1062.0508,1238.125,1067.0508,1233.125,1072.0508,1228.125,1067.0508" style="stroke: #B38D22; stroke-width: 1.25;"/><text fill="#000000" font-family="sans-serif" font-size="13.75" lengthAdjust="spacingAndGlyphs" textLength="116.25" x="1244.375" y="1073.8245">performOperation()</text><!--MD5=[9efddff3c3a3c35cd01977d234284cd4]
class TrimCharacterFilter--><rect fill="#FEFECE" filter="url(#fy4xjbmkix1m1)" height="146.4746" id="TrimCharacterFilter" style="stroke: #A80036; stroke-width: 1.875;" width="338.75" x="1138.75" y="1403.9258"/><ellipse cx="1236.5625" cy="1423.9258" fill="#ADD1B2" rx="13.75" ry="13.75" style="stroke: #A80036; stroke-width: 1.25;"/><path d="M1239.0625,1419.5508 Q1239.3164,1418.9258 1239.6094,1418.6133 Q1239.9023,1418.3008 1240.2344,1418.3008 Q1240.8203,1418.3008 1241.1914,1418.6523 Q1241.5625,1419.0039 1241.5625,1419.8242 L1241.5625,1421.7773 Q1241.5625,1422.5977 1241.2109,1422.9492 Q1240.8594,1423.3008 1240.3125,1423.3008 Q1239.8242,1423.3008 1239.5117,1423.0859 Q1239.1992,1422.8711 1239.0625,1422.3047 Q1239.0039,1421.9141 1238.7891,1421.6992 Q1238.3984,1421.2891 1237.6953,1421.0547 Q1236.9922,1420.8008 1236.2891,1420.8008 Q1235.4102,1420.8008 1234.668,1421.1523 Q1233.9453,1421.5039 1233.3789,1422.2852 Q1232.8125,1423.0664 1232.8125,1424.1406 L1232.8125,1425.293 Q1232.8125,1426.582 1233.8672,1427.4414 Q1234.9219,1428.3008 1236.7969,1428.3008 Q1237.9102,1428.3008 1238.6914,1428.0469 Q1239.1406,1427.9102 1239.6484,1427.4609 Q1239.9805,1427.207 1240.1563,1427.1289 Q1240.332,1427.0508 1240.5469,1427.0508 Q1240.957,1427.0508 1241.25,1427.3828 Q1241.5625,1427.6953 1241.5625,1428.1445 Q1241.5625,1428.5742 1241.1328,1429.082 Q1240.5078,1429.8242 1239.5117,1430.2344 Q1238.2031,1430.8008 1236.6016,1430.8008 Q1234.7266,1430.8008 1233.2227,1430.0586 Q1232.0117,1429.4727 1231.1523,1428.2031 Q1230.3125,1426.9336 1230.3125,1425.4297 L1230.3125,1424.0625 Q1230.3125,1422.5 1231.0547,1421.1328 Q1231.8164,1419.7656 1233.125,1419.043 Q1234.4531,1418.3008 1235.9375,1418.3008 Q1236.8359,1418.3008 1237.6172,1418.6133 Q1238.3984,1418.9258 1239.0625,1419.5508 Z "/><text fill="#000000" font-family="sans-serif" font-size="15" lengthAdjust="spacingAndGlyphs" textLength="132.5" x="1262.1875" y="1430.0635">TrimCharacterFilter</text><line style="stroke: #A80036; stroke-width: 1.875;" x1="1140" x2="1476.25" y1="1443.9258" y2="1443.9258"/><rect fill="none" height="7.5" style="stroke: #C82930; stroke-width: 1.25;" width="7.5" x="1148.75" y="1453.9258"/><text fill="#000000" font-family="sans-serif" font-size="13.75" lengthAdjust="spacingAndGlyphs" textLength="122.5" x="1163.75" y="1463.1995">String trimmingString</text><line style="stroke: #A80036; stroke-width: 1.875;" x1="1140" x2="1476.25" y1="1471.2207" y2="1471.2207"/><ellipse cx="1152.5" cy="1484.9707" fill="#84BE84" rx="3.75" ry="3.75" style="stroke: #038048; stroke-width: 1.25;"/><text fill="#000000" font-family="sans-serif" font-size="13.75" lengthAdjust="spacingAndGlyphs" textLength="146.25" x="1163.75" y="1490.4944">filter(String input): String</text><polygon fill="#FFFF44" points="1152.5,1496.0156,1157.5,1501.0156,1152.5,1506.0156,1147.5,1501.0156" style="stroke: #B38D22; stroke-width: 1.25;"/><text fill="#000000" font-family="sans-serif" font-size="13.75" lengthAdjust="spacingAndGlyphs" textLength="306.25" x="1163.75" y="1507.7893">performOperation() is UNSUPPORTED_OPERATION</text><ellipse cx="1152.5" cy="1519.5605" fill="#84BE84" rx="3.75" ry="3.75" style="stroke: #038048; stroke-width: 1.25;"/><text fill="#000000" font-family="sans-serif" font-size="13.75" lengthAdjust="spacingAndGlyphs" textLength="96.25" x="1163.75" y="1525.0842">addFilter(String)</text><ellipse cx="1152.5" cy="1536.8555" fill="#84BE84" rx="3.75" ry="3.75" style="stroke: #038048; stroke-width: 1.25;"/><text fill="#000000" font-family="sans-serif" font-size="13.75" lengthAdjust="spacingAndGlyphs" textLength="88.75" x="1163.75" y="1542.3792">addFilter(char)</text><!--MD5=[612d88bd08037d70c882037fd6ce0ab7]
class TrimRegexFilter--><rect fill="#FEFECE" filter="url(#fy4xjbmkix1m1)" height="94.5898" id="TrimRegexFilter" style="stroke: #A80036; stroke-width: 1.875;" width="148.75" x="1567.5" y="1154.5508"/><ellipse cx="1586.25" cy="1174.5508" fill="#ADD1B2" rx="13.75" ry="13.75" style="stroke: #A80036; stroke-width: 1.25;"/><path d="M1588.75,1170.1758 Q1589.0039,1169.5508 1589.2969,1169.2383 Q1589.5898,1168.9258 1589.9219,1168.9258 Q1590.5078,1168.9258 1590.8789,1169.2773 Q1591.25,1169.6289 1591.25,1170.4492 L1591.25,1172.4023 Q1591.25,1173.2227 1590.8984,1173.5742 Q1590.5469,1173.9258 1590,1173.9258 Q1589.5117,1173.9258 1589.1992,1173.7109 Q1588.8867,1173.4961 1588.75,1172.9297 Q1588.6914,1172.5391 1588.4766,1172.3242 Q1588.0859,1171.9141 1587.3828,1171.6797 Q1586.6797,1171.4258 1585.9766,1171.4258 Q1585.0977,1171.4258 1584.3555,1171.7773 Q1583.6328,1172.1289 1583.0664,1172.9102 Q1582.5,1173.6914 1582.5,1174.7656 L1582.5,1175.918 Q1582.5,1177.207 1583.5547,1178.0664 Q1584.6094,1178.9258 1586.4844,1178.9258 Q1587.5977,1178.9258 1588.3789,1178.6719 Q1588.8281,1178.5352 1589.3359,1178.0859 Q1589.668,1177.832 1589.8438,1177.7539 Q1590.0195,1177.6758 1590.2344,1177.6758 Q1590.6445,1177.6758 1590.9375,1178.0078 Q1591.25,1178.3203 1591.25,1178.7695 Q1591.25,1179.1992 1590.8203,1179.707 Q1590.1953,1180.4492 1589.1992,1180.8594 Q1587.8906,1181.4258 1586.2891,1181.4258 Q1584.4141,1181.4258 1582.9102,1180.6836 Q1581.6992,1180.0977 1580.8398,1178.8281 Q1580,1177.5586 1580,1176.0547 L1580,1174.6875 Q1580,1173.125 1580.7422,1171.7578 Q1581.5039,1170.3906 1582.8125,1169.668 Q1584.1406,1168.9258 1585.625,1168.9258 Q1586.5234,1168.9258 1587.3047,1169.2383 Q1588.0859,1169.5508 1588.75,1170.1758 Z "/><text fill="#000000" font-family="sans-serif" font-size="15" lengthAdjust="spacingAndGlyphs" textLength="108.75" x="1603.75" y="1180.6885">TrimRegexFilter</text><line style="stroke: #A80036; stroke-width: 1.875;" x1="1568.75" x2="1715" y1="1194.5508" y2="1194.5508"/><line style="stroke: #A80036; stroke-width: 1.875;" x1="1568.75" x2="1715" y1="1204.5508" y2="1204.5508"/><polygon fill="#FFFF44" points="1581.25,1212.0508,1586.25,1217.0508,1581.25,1222.0508,1576.25,1217.0508" style="stroke: #B38D22; stroke-width: 1.25;"/><text fill="#000000" font-family="sans-serif" font-size="13.75" lengthAdjust="spacingAndGlyphs" textLength="92.5" x="1592.5" y="1223.8245">modifyPattern()</text><polygon fill="#FFFF44" points="1581.25,1229.3457,1586.25,1234.3457,1581.25,1239.3457,1576.25,1234.3457" style="stroke: #B38D22; stroke-width: 1.25;"/><text fill="#000000" font-family="sans-serif" font-size="13.75" lengthAdjust="spacingAndGlyphs" textLength="116.25" x="1592.5" y="1241.1194">performOperation()</text><!--MD5=[a6704dc8d4334893ecfc675772ec3f70]
class FileNameFilterOperation--><rect fill="#FEFECE" filter="url(#fy4xjbmkix1m1)" height="60" id="FileNameFilterOperation" style="stroke: #A80036; stroke-width: 1.875;" width="208.75" x="770.625" y="1048.3008"/><ellipse cx="789.375" cy="1068.3008" fill="#ADD1B2" rx="13.75" ry="13.75" style="stroke: #A80036; stroke-width: 1.25;"/><path d="M791.875,1063.9258 Q792.1289,1063.3008 792.4219,1062.9883 Q792.7148,1062.6758 793.0469,1062.6758 Q793.6328,1062.6758 794.0039,1063.0273 Q794.375,1063.3789 794.375,1064.1992 L794.375,1066.1523 Q794.375,1066.9727 794.0234,1067.3242 Q793.6719,1067.6758 793.125,1067.6758 Q792.6367,1067.6758 792.3242,1067.4609 Q792.0117,1067.2461 791.875,1066.6797 Q791.8164,1066.2891 791.6016,1066.0742 Q791.2109,1065.6641 790.5078,1065.4297 Q789.8047,1065.1758 789.1016,1065.1758 Q788.2227,1065.1758 787.4805,1065.5273 Q786.7578,1065.8789 786.1914,1066.6602 Q785.625,1067.4414 785.625,1068.5156 L785.625,1069.668 Q785.625,1070.957 786.6797,1071.8164 Q787.7344,1072.6758 789.6094,1072.6758 Q790.7227,1072.6758 791.5039,1072.4219 Q791.9531,1072.2852 792.4609,1071.8359 Q792.793,1071.582 792.9688,1071.5039 Q793.1445,1071.4258 793.3594,1071.4258 Q793.7695,1071.4258 794.0625,1071.7578 Q794.375,1072.0703 794.375,1072.5195 Q794.375,1072.9492 793.9453,1073.457 Q793.3203,1074.1992 792.3242,1074.6094 Q791.0156,1075.1758 789.4141,1075.1758 Q787.5391,1075.1758 786.0352,1074.4336 Q784.8242,1073.8477 783.9648,1072.5781 Q783.125,1071.3086 783.125,1069.8047 L783.125,1068.4375 Q783.125,1066.875 783.8672,1065.5078 Q784.6289,1064.1406 785.9375,1063.418 Q787.2656,1062.6758 788.75,1062.6758 Q789.6484,1062.6758 790.4297,1062.9883 Q791.2109,1063.3008 791.875,1063.9258 Z "/><text fill="#000000" font-family="sans-serif" font-size="15" lengthAdjust="spacingAndGlyphs" textLength="168.75" x="806.875" y="1074.4385">FileNameFilterOperation</text><line style="stroke: #A80036; stroke-width: 1.875;" x1="771.875" x2="978.125" y1="1088.3008" y2="1088.3008"/><line style="stroke: #A80036; stroke-width: 1.875;" x1="771.875" x2="978.125" y1="1098.3008" y2="1098.3008"/><!--MD5=[7ecfc4efc24ae89882ae396b42e17de4]
class StringUtilityOperations--><rect fill="#FEFECE" filter="url(#fy4xjbmkix1m1)" height="146.4746" id="StringUtilityOperations" style="stroke: #A80036; stroke-width: 1.875;" width="498.75" x="47.5" y="520.1758"/><ellipse cx="215.3125" cy="540.1758" fill="#ADD1B2" rx="13.75" ry="13.75" style="stroke: #A80036; stroke-width: 1.25;"/><path d="M217.8125,535.8008 Q218.0664,535.1758 218.3594,534.8633 Q218.6523,534.5508 218.9844,534.5508 Q219.5703,534.5508 219.9414,534.9023 Q220.3125,535.2539 220.3125,536.0742 L220.3125,538.0273 Q220.3125,538.8477 219.9609,539.1992 Q219.6094,539.5508 219.0625,539.5508 Q218.5742,539.5508 218.2617,539.3359 Q217.9492,539.1211 217.8125,538.5547 Q217.7539,538.1641 217.5391,537.9492 Q217.1484,537.5391 216.4453,537.3047 Q215.7422,537.0508 215.0391,537.0508 Q214.1602,537.0508 213.418,537.4023 Q212.6953,537.7539 212.1289,538.5352 Q211.5625,539.3164 211.5625,540.3906 L211.5625,541.543 Q211.5625,542.832 212.6172,543.6914 Q213.6719,544.5508 215.5469,544.5508 Q216.6602,544.5508 217.4414,544.2969 Q217.8906,544.1602 218.3984,543.7109 Q218.7305,543.457 218.9063,543.3789 Q219.082,543.3008 219.2969,543.3008 Q219.707,543.3008 220,543.6328 Q220.3125,543.9453 220.3125,544.3945 Q220.3125,544.8242 219.8828,545.332 Q219.2578,546.0742 218.2617,546.4844 Q216.9531,547.0508 215.3516,547.0508 Q213.4766,547.0508 211.9727,546.3086 Q210.7617,545.7227 209.9023,544.4531 Q209.0625,543.1836 209.0625,541.6797 L209.0625,540.3125 Q209.0625,538.75 209.8047,537.3828 Q210.5664,536.0156 211.875,535.293 Q213.2031,534.5508 214.6875,534.5508 Q215.5859,534.5508 216.3672,534.8633 Q217.1484,535.1758 217.8125,535.8008 Z "/><text fill="#000000" font-family="sans-serif" font-size="15" lengthAdjust="spacingAndGlyphs" textLength="152.5" x="240.9375" y="546.3135">StringUtilityOperations</text><line style="stroke: #A80036; stroke-width: 1.875;" x1="48.75" x2="545" y1="560.1758" y2="560.1758"/><line style="stroke: #A80036; stroke-width: 1.875;" x1="48.75" x2="545" y1="570.1758" y2="570.1758"/><ellipse cx="61.25" cy="583.9258" fill="#84BE84" rx="3.75" ry="3.75" style="stroke: #038048; stroke-width: 1.25;"/><text fill="#000000" font-family="sans-serif" font-size="13.75" lengthAdjust="spacingAndGlyphs" textLength="236.25" x="72.5" y="589.4495">squeezeEverything(String input): String</text><ellipse cx="61.25" cy="601.2207" fill="#84BE84" rx="3.75" ry="3.75" style="stroke: #038048; stroke-width: 1.25;"/><text fill="#000000" font-family="sans-serif" font-size="13.75" lengthAdjust="spacingAndGlyphs" textLength="326.25" x="72.5" y="606.7444">squeezeWhat(String input, char squeezeWhat): String</text><ellipse cx="61.25" cy="618.5156" fill="#84BE84" rx="3.75" ry="3.75" style="stroke: #038048; stroke-width: 1.25;"/><text fill="#000000" font-family="sans-serif" font-size="13.75" lengthAdjust="spacingAndGlyphs" textLength="362.5" x="72.5" y="624.0393">squeezeWhatRegex(String input, Pattern regexWhat): String</text><ellipse cx="61.25" cy="635.8105" fill="#84BE84" rx="3.75" ry="3.75" style="stroke: #038048; stroke-width: 1.25;"/><text fill="#000000" font-family="sans-serif" font-size="13.75" lengthAdjust="spacingAndGlyphs" textLength="430" x="72.5" y="641.3342">replaceWhatTo(String input, String replaceWhat, String replaceTo): void</text><ellipse cx="61.25" cy="653.1055" fill="#84BE84" rx="3.75" ry="3.75" style="stroke: #038048; stroke-width: 1.25;"/><text fill="#000000" font-family="sans-serif" font-size="13.75" lengthAdjust="spacingAndGlyphs" textLength="466.25" x="72.5" y="658.6292">replaceWhatRegexTo(String input, Pattern regexWhat, String replaceTo): void</text><!--MD5=[2b7bfd08bf27bbf7f2ce581849220247]
class StringSqueeze--><rect fill="#FEFECE" filter="url(#fy4xjbmkix1m1)" height="146.4746" id="StringSqueeze" style="stroke: #A80036; stroke-width: 1.875;" width="331.25" x="131.25" y="710.1758"/><ellipse cx="240.3125" cy="730.1758" fill="#A9DCDF" rx="13.75" ry="13.75" style="stroke: #A80036; stroke-width: 1.25;"/><path d="M242.5,732.0508 L238.3789,732.0508 L237.832,733.3008 L237.832,733.3008 L238.418,733.3008 L239.0625,734.082 L239.0625,734.5508 L239.0625,735.0195 L238.418,735.8008 L237.832,735.8008 L235.4688,735.8008 L234.707,735.8008 L234.0625,735.0195 L234.0625,734.5508 L234.0625,734.082 L234.707,733.3008 L235.4688,733.3008 L238.3594,725.8008 L237.2656,725.8008 L235.957,725.8008 L235.3125,725.0195 L235.3125,724.5508 L235.3125,724.082 L235.957,723.3008 L237.2656,723.3008 L241.8555,723.3008 L245.2148,733.3008 L245.918,733.3008 L245.918,733.3008 L246.5625,734.082 L246.5625,734.5508 L246.5625,735.0195 L245.918,735.8008 L245.2148,735.8008 L242.8516,735.8008 L242.207,735.8008 L241.5625,735.0195 L241.5625,734.5508 L241.5625,734.082 L242.207,733.3008 L242.8516,733.3008 L242.8516,733.3008 L242.5,732.0508 Z M241.8164,729.5508 L240.3125,725.0781 L239.0234,729.5508 L241.8164,729.5508 Z "/><text fill="#000000" font-family="sans-serif" font-size="15" font-style="italic" lengthAdjust="spacingAndGlyphs" textLength="102.5" x="265.9375" y="736.3135">StringSqueeze</text><line style="stroke: #A80036; stroke-width: 1.875;" x1="132.5" x2="461.25" y1="750.1758" y2="750.1758"/><polygon fill="none" points="145,757.6758,150,762.6758,145,767.6758,140,762.6758" style="stroke: #B38D22; stroke-width: 1.25;"/><text fill="#000000" font-family="sans-serif" font-size="13.75" lengthAdjust="spacingAndGlyphs" textLength="72.5" x="156.25" y="769.4495">currentChar</text><polygon fill="none" points="145,774.9707,150,779.9707,145,784.9707,140,779.9707" style="stroke: #B38D22; stroke-width: 1.25;"/><text fill="#000000" font-family="sans-serif" font-size="13.75" lengthAdjust="spacingAndGlyphs" textLength="112.5" x="156.25" y="786.7444">lastAppendedChar</text><line style="stroke: #A80036; stroke-width: 1.875;" x1="132.5" x2="461.25" y1="794.7656" y2="794.7656"/><ellipse cx="145" cy="808.5156" fill="#84BE84" rx="3.75" ry="3.75" style="stroke: #038048; stroke-width: 1.25;"/><text fill="#000000" font-family="sans-serif" font-size="13.75" lengthAdjust="spacingAndGlyphs" textLength="172.5" x="156.25" y="814.0393">squeeze(String input): String</text><rect fill="#F24D5C" height="7.5" style="stroke: #C82930; stroke-width: 1.25;" width="7.5" x="141.25" y="822.0605"/><text fill="#000000" font-family="sans-serif" font-size="13.75" lengthAdjust="spacingAndGlyphs" textLength="211.25" x="156.25" y="831.3342">performSqueeze(String input): void</text><polygon fill="#FFFF44" points="145,836.8555,150,841.8555,145,846.8555,140,841.8555" style="stroke: #B38D22; stroke-width: 1.25;"/><text fill="#000000" font-family="sans-serif" font-size="13.75" font-style="italic" lengthAdjust="spacingAndGlyphs" textLength="298.75" x="156.25" y="848.6292">thisCharIsRelevantForSqueezing(char): boolean</text><!--MD5=[8cab7b5c6ec80ba6073ebc86ecd94232]
class SqueezeEverything--><rect fill="#FEFECE" filter="url(#fy4xjbmkix1m1)" height="77.2949" id="SqueezeEverything" style="stroke: #A80036; stroke-width: 1.875;" width="321.25" x="714.375" y="832.0508"/><ellipse cx="804.6875" cy="852.0508" fill="#ADD1B2" rx="13.75" ry="13.75" style="stroke: #A80036; stroke-width: 1.25;"/><path d="M807.1875,847.6758 Q807.4414,847.0508 807.7344,846.7383 Q808.0273,846.4258 808.3594,846.4258 Q808.9453,846.4258 809.3164,846.7773 Q809.6875,847.1289 809.6875,847.9492 L809.6875,849.9023 Q809.6875,850.7227 809.3359,851.0742 Q808.9844,851.4258 808.4375,851.4258 Q807.9492,851.4258 807.6367,851.2109 Q807.3242,850.9961 807.1875,850.4297 Q807.1289,850.0391 806.9141,849.8242 Q806.5234,849.4141 805.8203,849.1797 Q805.1172,848.9258 804.4141,848.9258 Q803.5352,848.9258 802.793,849.2773 Q802.0703,849.6289 801.5039,850.4102 Q800.9375,851.1914 800.9375,852.2656 L800.9375,853.418 Q800.9375,854.707 801.9922,855.5664 Q803.0469,856.4258 804.9219,856.4258 Q806.0352,856.4258 806.8164,856.1719 Q807.2656,856.0352 807.7734,855.5859 Q808.1055,855.332 808.2813,855.2539 Q808.457,855.1758 808.6719,855.1758 Q809.082,855.1758 809.375,855.5078 Q809.6875,855.8203 809.6875,856.2695 Q809.6875,856.6992 809.2578,857.207 Q808.6328,857.9492 807.6367,858.3594 Q806.3281,858.9258 804.7266,858.9258 Q802.8516,858.9258 801.3477,858.1836 Q800.1367,857.5977 799.2773,856.3281 Q798.4375,855.0586 798.4375,853.5547 L798.4375,852.1875 Q798.4375,850.625 799.1797,849.2578 Q799.9414,847.8906 801.25,847.168 Q802.5781,846.4258 804.0625,846.4258 Q804.9609,846.4258 805.7422,846.7383 Q806.5234,847.0508 807.1875,847.6758 Z "/><text fill="#000000" font-family="sans-serif" font-size="15" lengthAdjust="spacingAndGlyphs" textLength="130" x="830.3125" y="858.1885">SqueezeEverything</text><line style="stroke: #A80036; stroke-width: 1.875;" x1="715.625" x2="1034.375" y1="872.0508" y2="872.0508"/><line style="stroke: #A80036; stroke-width: 1.875;" x1="715.625" x2="1034.375" y1="882.0508" y2="882.0508"/><polygon fill="#FFFF44" points="728.125,889.5508,733.125,894.5508,728.125,899.5508,723.125,894.5508" style="stroke: #B38D22; stroke-width: 1.25;"/><text fill="#000000" font-family="sans-serif" font-size="13.75" lengthAdjust="spacingAndGlyphs" textLength="288.75" x="739.375" y="901.3245">thisCharIsRelevantForSqueezing(char): boolean</text><!--MD5=[a04ccb9b7ab8760d8cf73943b90219cd]
class SqueezeSpecificCharOnly--><rect fill="#FEFECE" filter="url(#fy4xjbmkix1m1)" height="111.8848" id="SqueezeSpecificCharOnly" style="stroke: #A80036; stroke-width: 1.875;" width="321.25" x="714.375" y="675.8008"/><ellipse cx="780.9375" cy="695.8008" fill="#ADD1B2" rx="13.75" ry="13.75" style="stroke: #A80036; stroke-width: 1.25;"/><path d="M783.4375,691.4258 Q783.6914,690.8008 783.9844,690.4883 Q784.2773,690.1758 784.6094,690.1758 Q785.1953,690.1758 785.5664,690.5273 Q785.9375,690.8789 785.9375,691.6992 L785.9375,693.6523 Q785.9375,694.4727 785.5859,694.8242 Q785.2344,695.1758 784.6875,695.1758 Q784.1992,695.1758 783.8867,694.9609 Q783.5742,694.7461 783.4375,694.1797 Q783.3789,693.7891 783.1641,693.5742 Q782.7734,693.1641 782.0703,692.9297 Q781.3672,692.6758 780.6641,692.6758 Q779.7852,692.6758 779.043,693.0273 Q778.3203,693.3789 777.7539,694.1602 Q777.1875,694.9414 777.1875,696.0156 L777.1875,697.168 Q777.1875,698.457 778.2422,699.3164 Q779.2969,700.1758 781.1719,700.1758 Q782.2852,700.1758 783.0664,699.9219 Q783.5156,699.7852 784.0234,699.3359 Q784.3555,699.082 784.5313,699.0039 Q784.707,698.9258 784.9219,698.9258 Q785.332,698.9258 785.625,699.2578 Q785.9375,699.5703 785.9375,700.0195 Q785.9375,700.4492 785.5078,700.957 Q784.8828,701.6992 783.8867,702.1094 Q782.5781,702.6758 780.9766,702.6758 Q779.1016,702.6758 777.5977,701.9336 Q776.3867,701.3477 775.5273,700.0781 Q774.6875,698.8086 774.6875,697.3047 L774.6875,695.9375 Q774.6875,694.375 775.4297,693.0078 Q776.1914,691.6406 777.5,690.918 Q778.8281,690.1758 780.3125,690.1758 Q781.2109,690.1758 781.9922,690.4883 Q782.7734,690.8008 783.4375,691.4258 Z "/><text fill="#000000" font-family="sans-serif" font-size="15" lengthAdjust="spacingAndGlyphs" textLength="177.5" x="806.5625" y="701.9385">SqueezeSpecificCharOnly</text><line style="stroke: #A80036; stroke-width: 1.875;" x1="715.625" x2="1034.375" y1="715.8008" y2="715.8008"/><rect fill="none" height="7.5" style="stroke: #C82930; stroke-width: 1.25;" width="7.5" x="724.375" y="725.8008"/><text fill="#000000" font-family="sans-serif" font-size="13.75" lengthAdjust="spacingAndGlyphs" textLength="115" x="739.375" y="735.0745">char squeezeWhat</text><line style="stroke: #A80036; stroke-width: 1.875;" x1="715.625" x2="1034.375" y1="743.0957" y2="743.0957"/><ellipse cx="728.125" cy="756.8457" fill="#84BE84" rx="3.75" ry="3.75" style="stroke: #038048; stroke-width: 1.25;"/><text fill="#000000" font-family="sans-serif" font-size="13.75" lengthAdjust="spacingAndGlyphs" textLength="283.75" x="739.375" y="762.3694">SqueezeSpecificCharOnly(char squeezeWhat)</text><polygon fill="#FFFF44" points="728.125,767.8906,733.125,772.8906,728.125,777.8906,723.125,772.8906" style="stroke: #B38D22; stroke-width: 1.25;"/><text fill="#000000" font-family="sans-serif" font-size="13.75" lengthAdjust="spacingAndGlyphs" textLength="288.75" x="739.375" y="779.6643">thisCharIsRelevantForSqueezing(char): boolean</text><!--MD5=[3dac04ce9362af3c8dff68db063f55d1]
class SqueezeSpecificCharRegexOnly--><rect fill="#FEFECE" filter="url(#fy4xjbmkix1m1)" height="111.8848" id="SqueezeSpecificCharRegexOnly" style="stroke: #A80036; stroke-width: 1.875;" width="370" x="690" y="519.5508"/><ellipse cx="759.0625" cy="539.5508" fill="#ADD1B2" rx="13.75" ry="13.75" style="stroke: #A80036; stroke-width: 1.25;"/><path d="M761.5625,535.1758 Q761.8164,534.5508 762.1094,534.2383 Q762.4023,533.9258 762.7344,533.9258 Q763.3203,533.9258 763.6914,534.2773 Q764.0625,534.6289 764.0625,535.4492 L764.0625,537.4023 Q764.0625,538.2227 763.7109,538.5742 Q763.3594,538.9258 762.8125,538.9258 Q762.3242,538.9258 762.0117,538.7109 Q761.6992,538.4961 761.5625,537.9297 Q761.5039,537.5391 761.2891,537.3242 Q760.8984,536.9141 760.1953,536.6797 Q759.4922,536.4258 758.7891,536.4258 Q757.9102,536.4258 757.168,536.7773 Q756.4453,537.1289 755.8789,537.9102 Q755.3125,538.6914 755.3125,539.7656 L755.3125,540.918 Q755.3125,542.207 756.3672,543.0664 Q757.4219,543.9258 759.2969,543.9258 Q760.4102,543.9258 761.1914,543.6719 Q761.6406,543.5352 762.1484,543.0859 Q762.4805,542.832 762.6563,542.7539 Q762.832,542.6758 763.0469,542.6758 Q763.457,542.6758 763.75,543.0078 Q764.0625,543.3203 764.0625,543.7695 Q764.0625,544.1992 763.6328,544.707 Q763.0078,545.4492 762.0117,545.8594 Q760.7031,546.4258 759.1016,546.4258 Q757.2266,546.4258 755.7227,545.6836 Q754.5117,545.0977 753.6523,543.8281 Q752.8125,542.5586 752.8125,541.0547 L752.8125,539.6875 Q752.8125,538.125 753.5547,536.7578 Q754.3164,535.3906 755.625,534.668 Q756.9531,533.9258 758.4375,533.9258 Q759.3359,533.9258 760.1172,534.2383 Q760.8984,534.5508 761.5625,535.1758 Z "/><text fill="#000000" font-family="sans-serif" font-size="15" lengthAdjust="spacingAndGlyphs" textLength="221.25" x="784.6875" y="545.6885">SqueezeSpecificCharRegexOnly</text><line style="stroke: #A80036; stroke-width: 1.875;" x1="691.25" x2="1058.75" y1="559.5508" y2="559.5508"/><rect fill="none" height="7.5" style="stroke: #C82930; stroke-width: 1.25;" width="7.5" x="700" y="569.5508"/><text fill="#000000" font-family="sans-serif" font-size="13.75" lengthAdjust="spacingAndGlyphs" textLength="168.75" x="715" y="578.8245">Pattern squeezeRegexWhat</text><line style="stroke: #A80036; stroke-width: 1.875;" x1="691.25" x2="1058.75" y1="586.8457" y2="586.8457"/><ellipse cx="703.75" cy="600.5957" fill="#84BE84" rx="3.75" ry="3.75" style="stroke: #038048; stroke-width: 1.25;"/><text fill="#000000" font-family="sans-serif" font-size="13.75" lengthAdjust="spacingAndGlyphs" textLength="337.5" x="715" y="606.1194">SqueezeSpecificCharOnly(Pattern squeezeRegexWhat)</text><polygon fill="#FFFF44" points="703.75,611.6406,708.75,616.6406,703.75,621.6406,698.75,616.6406" style="stroke: #B38D22; stroke-width: 1.25;"/><text fill="#000000" font-family="sans-serif" font-size="13.75" lengthAdjust="spacingAndGlyphs" textLength="288.75" x="715" y="623.4143">thisCharIsRelevantForSqueezing(char): boolean</text><!--MD5=[419b6b9fe27c11fb49587d9b995c1c91]
class FileOperation--><rect fill="#FEFECE" filter="url(#fy4xjbmkix1m1)" height="129.1797" id="FileOperation" style="stroke: #A80036; stroke-width: 1.875;" width="378.75" x="107.5" y="122.6758"/><ellipse cx="245.3125" cy="142.6758" fill="#B4A7E5" rx="13.75" ry="13.75" style="stroke: #A80036; stroke-width: 1.25;"/><path d="M246.5625,138.9258 L246.5625,146.4258 L249.0625,146.4258 L249.668,146.4258 L250.3125,147.207 L250.3125,147.6758 L250.3125,148.1445 L249.668,148.9258 L249.0625,148.9258 L241.5625,148.9258 L240.957,148.9258 L240.3125,148.1445 L240.3125,147.6758 L240.3125,147.207 L240.957,146.4258 L241.5625,146.4258 L244.0625,146.4258 L244.0625,138.9258 L241.5625,138.9258 L240.957,138.9258 L240.3125,138.1445 L240.3125,137.6758 L240.3125,137.207 L240.957,136.4258 L241.5625,136.4258 L249.0625,136.4258 L249.668,136.4258 L250.3125,137.207 L250.3125,137.6758 L250.3125,138.1445 L249.668,138.9258 L249.0625,138.9258 L246.5625,138.9258 Z "/><text fill="#000000" font-family="sans-serif" font-size="15" font-style="italic" lengthAdjust="spacingAndGlyphs" textLength="92.5" x="270.9375" y="148.8135">FileOperation</text><line style="stroke: #A80036; stroke-width: 1.875;" x1="108.75" x2="485" y1="162.6758" y2="162.6758"/><line style="stroke: #A80036; stroke-width: 1.875;" x1="108.75" x2="485" y1="172.6758" y2="172.6758"/><ellipse cx="121.25" cy="186.4258" fill="#84BE84" rx="3.75" ry="3.75" style="stroke: #038048; stroke-width: 1.25;"/><text fill="#000000" font-family="sans-serif" font-size="13.75" lengthAdjust="spacingAndGlyphs" textLength="272.5" x="132.5" y="191.9495">copy(Path what, Path to) throws IOException</text><ellipse cx="121.25" cy="203.7207" fill="#84BE84" rx="3.75" ry="3.75" style="stroke: #038048; stroke-width: 1.25;"/><text fill="#000000" font-family="sans-serif" font-size="13.75" lengthAdjust="spacingAndGlyphs" textLength="346.25" x="132.5" y="209.2444">rename(Path what, String newName) throws IOException</text><ellipse cx="121.25" cy="221.0156" fill="#84BE84" rx="3.75" ry="3.75" style="stroke: #038048; stroke-width: 1.25;"/><text fill="#000000" font-family="sans-serif" font-size="13.75" lengthAdjust="spacingAndGlyphs" textLength="275" x="132.5" y="226.5393">move(Path what, Path to) throws IOException</text><ellipse cx="121.25" cy="238.3105" fill="#84BE84" rx="3.75" ry="3.75" style="stroke: #038048; stroke-width: 1.25;"/><text fill="#000000" font-family="sans-serif" font-size="13.75" lengthAdjust="spacingAndGlyphs" textLength="230" x="132.5" y="243.8342">delete(Path what) throws IOException</text><!--MD5=[37ec621351fb9b6225df314d3640bd56]
class FileOperationEnum--><rect fill="#FEFECE" filter="url(#fy4xjbmkix1m1)" height="129.1797" id="FileOperationEnum" style="stroke: #A80036; stroke-width: 1.875;" width="173.75" x="210" y="295.1758"/><ellipse cx="228.75" cy="315.1758" fill="#EB937F" rx="13.75" ry="13.75" style="stroke: #A80036; stroke-width: 1.25;"/><path d="M226.875,316.4258 L226.875,318.9258 L231.875,318.9258 L231.875,317.6758 L231.875,317.0703 L232.6563,316.4258 L233.125,316.4258 L233.5938,316.4258 L234.375,317.0703 L234.375,317.6758 L234.375,321.4258 L224.375,321.4258 L223.7695,321.4258 L223.125,320.6445 L223.125,320.1758 L223.125,319.707 L223.7695,318.9258 L224.375,318.9258 L224.375,318.9258 L224.375,311.4258 L224.375,311.4258 L223.7695,311.4258 L223.125,310.6445 L223.125,310.1758 L223.125,309.707 L223.7695,308.9258 L224.375,308.9258 L234.375,308.9258 L234.375,312.6758 L234.375,313.2813 L233.5938,313.9258 L233.125,313.9258 L232.6563,313.9258 L231.875,313.2813 L231.875,312.6758 L231.875,311.4258 L226.875,311.4258 L226.875,313.9258 L228.125,313.9258 L228.125,313.3203 L228.125,313.3203 L228.9063,312.6758 L229.375,312.6758 L229.8438,312.6758 L230.625,313.3203 L230.625,313.9258 L230.625,316.4258 L230.625,317.0313 L229.8438,317.6758 L229.8438,317.6758 L229.375,317.6758 L228.9063,317.6758 L228.125,317.0313 L228.125,317.0313 L228.125,316.4258 L226.875,316.4258 Z "/><text fill="#000000" font-family="sans-serif" font-size="15" lengthAdjust="spacingAndGlyphs" textLength="133.75" x="246.25" y="321.3135">FileOperationEnum</text><line style="stroke: #A80036; stroke-width: 1.875;" x1="211.25" x2="382.5" y1="335.1758" y2="335.1758"/><text fill="#000000" font-family="sans-serif" font-size="13.75" lengthAdjust="spacingAndGlyphs" textLength="56.25" x="217.5" y="354.4495">RENAME,</text><text fill="#000000" font-family="sans-serif" font-size="13.75" lengthAdjust="spacingAndGlyphs" textLength="40" x="217.5" y="371.7444">COPY,</text><text fill="#000000" font-family="sans-serif" font-size="13.75" lengthAdjust="spacingAndGlyphs" textLength="41.25" x="217.5" y="389.0393">MOVE,</text><text fill="#000000" font-family="sans-serif" font-size="13.75" lengthAdjust="spacingAndGlyphs" textLength="46.25" x="217.5" y="406.3342">DELETE</text><line style="stroke: #A80036; stroke-width: 1.875;" x1="211.25" x2="382.5" y1="414.3555" y2="414.3555"/><!--MD5=[af7e3852b63889188f0141b7fc447a2d]
class FileOperationImpl--><rect fill="#FEFECE" filter="url(#fy4xjbmkix1m1)" height="60" id="FileOperationImpl" style="stroke: #A80036; stroke-width: 1.875;" width="162.5" x="793.75" y="157.0508"/><ellipse cx="812.5" cy="177.0508" fill="#ADD1B2" rx="13.75" ry="13.75" style="stroke: #A80036; stroke-width: 1.25;"/><path d="M815,172.6758 Q815.2539,172.0508 815.5469,171.7383 Q815.8398,171.4258 816.1719,171.4258 Q816.7578,171.4258 817.1289,171.7773 Q817.5,172.1289 817.5,172.9492 L817.5,174.9023 Q817.5,175.7227 817.1484,176.0742 Q816.7969,176.4258 816.25,176.4258 Q815.7617,176.4258 815.4492,176.2109 Q815.1367,175.9961 815,175.4297 Q814.9414,175.0391 814.7266,174.8242 Q814.3359,174.4141 813.6328,174.1797 Q812.9297,173.9258 812.2266,173.9258 Q811.3477,173.9258 810.6055,174.2773 Q809.8828,174.6289 809.3164,175.4102 Q808.75,176.1914 808.75,177.2656 L808.75,178.418 Q808.75,179.707 809.8047,180.5664 Q810.8594,181.4258 812.7344,181.4258 Q813.8477,181.4258 814.6289,181.1719 Q815.0781,181.0352 815.5859,180.5859 Q815.918,180.332 816.0938,180.2539 Q816.2695,180.1758 816.4844,180.1758 Q816.8945,180.1758 817.1875,180.5078 Q817.5,180.8203 817.5,181.2695 Q817.5,181.6992 817.0703,182.207 Q816.4453,182.9492 815.4492,183.3594 Q814.1406,183.9258 812.5391,183.9258 Q810.6641,183.9258 809.1602,183.1836 Q807.9492,182.5977 807.0898,181.3281 Q806.25,180.0586 806.25,178.5547 L806.25,177.1875 Q806.25,175.625 806.9922,174.2578 Q807.7539,172.8906 809.0625,172.168 Q810.3906,171.4258 811.875,171.4258 Q812.7734,171.4258 813.5547,171.7383 Q814.3359,172.0508 815,172.6758 Z "/><text fill="#000000" font-family="sans-serif" font-size="15" lengthAdjust="spacingAndGlyphs" textLength="122.5" x="830" y="183.1885">FileOperationImpl</text><line style="stroke: #A80036; stroke-width: 1.875;" x1="795" x2="955" y1="197.0508" y2="197.0508"/><line style="stroke: #A80036; stroke-width: 1.875;" x1="795" x2="955" y1="207.0508" y2="207.0508"/><!--MD5=[cc7357838401404a484a28208f5c8850]
reverse link Operation to CharacterOperation--><path d="M400.4025,1305.4008 C499.8713,1374.3058 650.8688,1478.9058 755.46,1551.3583 " fill="none" id="Operation&lt;-CharacterOperation" style="stroke: #A80036; stroke-width: 1.25;"/><polygon fill="none" points="394.945,1312.2645,379.3775,1290.8358,404.91,1297.8795,394.945,1312.2645" style="stroke: #A80036; stroke-width: 1.25;"/><!--MD5=[81dfe25f2f3c101fcd635b4b04644c6c]
reverse link Operation to RegexOperation--><path d="M431.405,1234.5508 C512.81,1234.5508 617.6613,1234.5508 704.8475,1234.5508 " fill="none" id="Operation&lt;-RegexOperation" style="stroke: #A80036; stroke-width: 1.25;"/><polygon fill="none" points="431.3963,1243.3008,406.3963,1234.5508,431.395,1225.8008,431.3963,1243.3008" style="stroke: #A80036; stroke-width: 1.25;"/><!--MD5=[54265d9a565f3c9b29bead258879ba97]
reverse link RegexOperation to ModifiedRegexOperation--><path d="M1070.1525,1265.5083 C1099.3938,1270.1758 1129.1663,1274.9295 1157.285,1279.4183 " fill="none" id="RegexOperation&lt;-ModifiedRegexOperation" style="stroke: #A80036; stroke-width: 1.25;"/><polygon fill="none" points="1068.5163,1274.107,1045.2088,1261.5258,1071.275,1256.8258,1068.5163,1274.107" style="stroke: #A80036; stroke-width: 1.25;"/><!--MD5=[1a5d337fd63de9dabbe27d6068dbf7f1]
reverse link CharacterOperation to BlacklistCharacterFilter--><path d="M989.0638,1731.4333 C1033.6075,1766.8345 1086.5588,1804.9958 1138.75,1833.3008 C1160.545,1845.1208 1185.1363,1855.4122 1208.6475,1863.9767 " fill="none" id="CharacterOperation&lt;-BlacklistCharacterFilter" style="stroke: #A80036; stroke-width: 1.25;"/><polygon fill="none" points="983.1725,1737.9233,969.2225,1715.4083,994.1688,1724.3095,983.1725,1737.9233" style="stroke: #A80036; stroke-width: 1.25;"/><!--MD5=[8bcd73171c4fb14159b7f9c1012850d6]
reverse link RegexOperation to BlacklistRegexFilter--><path d="M1069.9875,1203.0583 C1122.52,1194.5183 1176.7838,1185.697 1220.1,1178.657 " fill="none" id="RegexOperation&lt;-BlacklistRegexFilter" style="stroke: #A80036; stroke-width: 1.25;"/><polygon fill="none" points="1071.2888,1211.7108,1045.2088,1207.0858,1068.48,1194.4383,1071.2888,1211.7108" style="stroke: #A80036; stroke-width: 1.25;"/><!--MD5=[95301efd7fb36a92c89d5f5441e7569b]
reverse link CharacterOperation to WhitelistCharacterFilter--><path d="M1073.6775,1692.9008 C1099.0063,1700.5483 1124.6675,1708.2945 1149.2463,1715.7145 " fill="none" id="CharacterOperation&lt;-WhitelistCharacterFilter" style="stroke: #A80036; stroke-width: 1.25;"/><polygon fill="none" points="1070.945,1701.217,1049.54,1685.6145,1076.0025,1684.4633,1070.945,1701.217" style="stroke: #A80036; stroke-width: 1.25;"/><!--MD5=[9c65afe9d9548abced4a13c26a655f26]
reverse link ModifiedRegexOperation to WhitelistRegexFilter--><path d="M1484.15,1323.087 C1508.2625,1325.817 1532.125,1328.5183 1553.675,1330.957 " fill="none" id="ModifiedRegexOperation&lt;-WhitelistRegexFilter" style="stroke: #A80036; stroke-width: 1.25;"/><polygon fill="none" points="1482.8625,1331.747,1459.0125,1320.2408,1484.8375,1314.3583,1482.8625,1331.747" style="stroke: #A80036; stroke-width: 1.25;"/><!--MD5=[14b1d6b2dd97c12ec1aa8d0e1f86b373]
reverse link CharacterOperation to SqueezeCharacterFilter--><path d="M1074.8388,1633.3008 C1120.6588,1633.3008 1167.495,1633.3008 1206.98,1633.3008 " fill="none" id="CharacterOperation&lt;-SqueezeCharacterFilter" style="stroke: #A80036; stroke-width: 1.25;"/><polygon fill="none" points="1074.54,1642.0508,1049.54,1633.3008,1074.54,1624.5508,1074.54,1642.0508" style="stroke: #A80036; stroke-width: 1.25;"/><!--MD5=[f5146e78a1e409e55950125abfc1e934]
reverse link RegexOperation to SqueezeRegexFilter--><path d="M1067.8488,1142.0383 C1075.3413,1138.267 1082.7475,1134.512 1090,1130.8008 C1111.9075,1119.592 1116.2975,1114.622 1138.75,1104.5508 C1164.4013,1093.0445 1192.9275,1082.0195 1219.09,1072.572 " fill="none" id="RegexOperation&lt;-SqueezeRegexFilter" style="stroke: #A80036; stroke-width: 1.25;"/><polygon fill="none" points="1071.455,1150.0195,1045.18,1153.372,1063.6288,1134.3658,1071.455,1150.0195" style="stroke: #A80036; stroke-width: 1.25;"/><!--MD5=[b2aa84e69a3df2012faa0607e043963f]
reverse link CharacterOperation to TrimCharacterFilter--><path d="M1073.0988,1561.8745 C1094.9425,1553.9495 1117.0413,1545.9308 1138.4863,1538.1495 " fill="none" id="CharacterOperation&lt;-TrimCharacterFilter" style="stroke: #A80036; stroke-width: 1.25;"/><polygon fill="none" points="1076.025,1570.1208,1049.54,1570.4233,1070.0562,1553.6708,1076.025,1570.1208" style="stroke: #A80036; stroke-width: 1.25;"/><!--MD5=[d09a16993cc8649e82e86f9a6c1d4a1a]
reverse link ModifiedRegexOperation to TrimRegexFilter--><path d="M1483.2875,1250.1433 C1512.8625,1241.1045 1542.075,1232.1733 1567.1625,1224.507 " fill="none" id="ModifiedRegexOperation&lt;-TrimRegexFilter" style="stroke: #A80036; stroke-width: 1.25;"/><polygon fill="none" points="1485.475,1258.6233,1459.0125,1257.5633,1480.3625,1241.8883,1485.475,1258.6233" style="stroke: #A80036; stroke-width: 1.25;"/><!--MD5=[598d981ba7b73d58031d6a410bcc4844]
reverse link Operation to FileNameFilterOperation--><path d="M430.7863,1198.5408 C534.0538,1170.5095 675.33,1132.1608 770.3238,1106.3758 " fill="none" id="Operation&lt;-FileNameFilterOperation" style="stroke: #A80036; stroke-width: 1.25;"/><polygon fill="none" points="432.815,1207.057,406.3963,1205.1608,428.23,1190.1683,432.815,1207.057" style="stroke: #A80036; stroke-width: 1.25;"/><!--MD5=[55e2f49deac9aa9fbad11c7d0389b65f]
reverse link StringSqueeze to SqueezeEverything--><path d="M487.6525,812.1108 C560.925,823.2483 643.8563,835.8545 714.0275,846.522 " fill="none" id="StringSqueeze&lt;-SqueezeEverything" style="stroke: #A80036; stroke-width: 1.25;"/><polygon fill="none" points="486.0913,820.7245,462.6913,808.3158,488.7212,803.4233,486.0913,820.7245" style="stroke: #A80036; stroke-width: 1.25;"/><text fill="#000000" font-family="sans-serif" font-size="16.25" lengthAdjust="spacingAndGlyphs" textLength="66.25" x="585" y="802.6697">Template</text><text fill="#000000" font-family="sans-serif" font-size="16.25" lengthAdjust="spacingAndGlyphs" textLength="53.75" x="591.25" y="823.1091">method</text><!--MD5=[159ac60fe415bb3eeaf45bd16a1cc468]
reverse link StringSqueeze to SqueezeSpecificCharOnly--><path d="M487.6525,766.427 C560.925,759.9033 643.8563,752.5195 714.0275,746.272 " fill="none" id="StringSqueeze&lt;-SqueezeSpecificCharOnly" style="stroke: #A80036; stroke-width: 1.25;"/><polygon fill="none" points="488.3688,775.147,462.6913,768.6483,486.8162,757.7158,488.3688,775.147" style="stroke: #A80036; stroke-width: 1.25;"/><text fill="#000000" font-family="sans-serif" font-size="16.25" lengthAdjust="spacingAndGlyphs" textLength="66.25" x="585" y="727.6697">Template</text><text fill="#000000" font-family="sans-serif" font-size="16.25" lengthAdjust="spacingAndGlyphs" textLength="53.75" x="591.25" y="748.1091">method</text><!--MD5=[871a7013741b94a8a27ce1c71732a83d]
reverse link StringSqueeze to SqueezeSpecificCharRegexOnly--><path d="M486.5688,715.3758 C561.31,688.4258 646.2425,657.8133 717.4775,632.1383 " fill="none" id="StringSqueeze&lt;-SqueezeSpecificCharRegexOnly" style="stroke: #A80036; stroke-width: 1.25;"/><polygon fill="none" points="489.1763,723.732,462.6913,723.9783,483.2425,707.2633,489.1763,723.732" style="stroke: #A80036; stroke-width: 1.25;"/><text fill="#000000" font-family="sans-serif" font-size="16.25" lengthAdjust="spacingAndGlyphs" textLength="66.25" x="585" y="636.4197">Template</text><text fill="#000000" font-family="sans-serif" font-size="16.25" lengthAdjust="spacingAndGlyphs" textLength="53.75" x="591.25" y="656.8591">method</text><!--MD5=[ed9758b0ab446b3b4b3b72f1dd56b1cc]
reverse link FileOperation to FileOperationImpl--><path d="M511.6488,187.0508 C610.025,187.0508 720.83,187.0508 793.66,187.0508 " fill="none" id="FileOperation&lt;-FileOperationImpl" style="stroke: #A80036; stroke-width: 1.25; stroke-dasharray: 7.0,7.0;"/><polygon fill="none" points="511.6063,195.8008,486.6063,187.0508,511.6063,178.3008,511.6063,195.8008" style="stroke: #A80036; stroke-width: 1.25;"/><!--MD5=[0d28364b0e1a97b6675b2d996ddc5872]
@startuml
left to right direction

skinparam titleBorderRoundCorner 15
skinparam titleBorderThickness 2
skinparam titleBorderColor red
skinparam titleBackgroundColor Aqua-CadetBlue

title Class diagram



package model.string_filters.operations {

abstract class Operation {
    #StringAdditionalOperations ops
    +{abstract}filter(String input): String
    +{abstract}addFilter(String filter): void
}

abstract class CharacterOperation extends Operation {
    #List<Character> filterCharacters
    +filter(String input): String
    +replaceWith(String replaceWith)
    +addFilter(char filterCharacter)
    +addFilter(String filterCharacters)
    #{abstract}performOperation(String input, char filterCharacter)
}
abstract class RegexOperation extends Operation {
    #Pattern filterPattern
    +filter(String input): String
    +replaceWith(String replaceWith)
    +addFilter(Pattern newFilterPattern)
    +addFilter(String newFilterPattern)
    #{abstract}performOperation(String input, Patter filterPattern)
}
abstract class ModifiedRegexOperation extends RegexOperation {
    #Pattern modifiedFilterPattern
    +addFilter(Pattern newPatternToBeModified)
    #{abstract}modifyPattern(Pattern patternToBeModified)
}

class BlacklistCharacterFilter extends CharacterOperation {
    #performOperation()
}
class BlacklistRegexFilter extends RegexOperation {
    #performOperation()
}

class WhitelistCharacterFilter extends CharacterOperation {
    +filter(String input): String
    #performOperation() is UNSUPPORTED_OPERATION
}
class WhitelistRegexFilter extends ModifiedRegexOperation {
    #modifyPattern()
    #performOperation()
}

class SqueezeCharacterFilter extends CharacterOperation {
    #performOperation()
}
class SqueezeRegexFilter extends RegexOperation {
    #performOperation()
}
class TrimCharacterFilter extends CharacterOperation {
    -String trimmingString
    +filter(String input): String
    #performOperation() is UNSUPPORTED_OPERATION
    +addFilter(String)
    +addFilter(char)

}
class TrimRegexFilter extends ModifiedRegexOperation {
    #modifyPattern()
    #performOperation()
}

class FileNameFilterOperation extends Operation
}

package model.strings {
    class StringUtilityOperations {
        +squeezeEverything(String input): String
        +squeezeWhat(String input, char squeezeWhat): String
        +squeezeWhatRegex(String input, Pattern regexWhat): String
        +replaceWhatTo(String input, String replaceWhat, String replaceTo): void
        +replaceWhatRegexTo(String input, Pattern regexWhat, String replaceTo): void
    }

    abstract class StringSqueeze {
        #currentChar
        #lastAppendedChar

        +squeeze(String input): String
        -performSqueeze(String input): void
        #{abstract}thisCharIsRelevantForSqueezing(char): boolean
    }

    class SqueezeEverything {
        #thisCharIsRelevantForSqueezing(char): boolean
    }

    class SqueezeSpecificCharOnly {
        -char squeezeWhat
        +SqueezeSpecificCharOnly(char squeezeWhat)
        #thisCharIsRelevantForSqueezing(char): boolean
    }

    class SqueezeSpecificCharRegexOnly {
        -Pattern squeezeRegexWhat
        +SqueezeSpecificCharOnly(Pattern squeezeRegexWhat)
        #thisCharIsRelevantForSqueezing(char): boolean
    }

    StringSqueeze <|- - SqueezeEverything : Template\nmethod
    StringSqueeze <|- - SqueezeSpecificCharOnly : Template\nmethod
    StringSqueeze <|- - SqueezeSpecificCharRegexOnly : Template\nmethod


}

package model.file_operations {

interface FileOperation {
    +copy(Path what, Path to) throws IOException
    +rename(Path what, String newName) throws IOException
    +move(Path what, Path to) throws IOException
    +delete(Path what) throws IOException
}

enum FileOperationEnum {
    RENAME,
    COPY,
    MOVE,
    DELETE
}

class FileOperationImpl implements FileOperation

}

@enduml

PlantUML version 1.2020.09(Sun May 10 12:51:06 CEST 2020)
(GPL source distribution)
Java Runtime: OpenJDK Runtime Environment
JVM: OpenJDK 64-Bit Server VM
Java Version: 11.0.6+8-b765.40
Operating System: Windows 10
Default Encoding: Cp1252
Language: en
Country: US
--></g></svg>